<mxfile host="app.diagrams.net" modified="2023-04-18T15:46:45.679Z" agent="Mozilla/5.0 (Windows NT 10.0; Win64; x64) AppleWebKit/537.36 (KHTML, like Gecko) Chrome/112.0.0.0 Safari/537.36" etag="P7CucYnEHb1DX6TuaxqI" version="21.1.4" type="device">
  <diagram name="Page-1" id="bPjZ9xcKArm-dC0nSAHQ">
    <mxGraphModel dx="1034" dy="1642" grid="1" gridSize="10" guides="1" tooltips="1" connect="1" arrows="1" fold="1" page="1" pageScale="1" pageWidth="827" pageHeight="1169" math="0" shadow="0">
      <root>
        <mxCell id="0" />
        <mxCell id="1" parent="0" />
        <mxCell id="h1lC2TfffPqqnakFkUhg-13" value="1" style="edgeStyle=orthogonalEdgeStyle;rounded=0;orthogonalLoop=1;jettySize=auto;html=1;entryX=0.5;entryY=1;entryDx=0;entryDy=0;" edge="1" parent="1" source="h1lC2TfffPqqnakFkUhg-2" target="h1lC2TfffPqqnakFkUhg-10">
          <mxGeometry relative="1" as="geometry" />
        </mxCell>
        <mxCell id="h1lC2TfffPqqnakFkUhg-16" value="0" style="edgeStyle=orthogonalEdgeStyle;rounded=0;orthogonalLoop=1;jettySize=auto;html=1;entryX=0.5;entryY=0;entryDx=0;entryDy=0;" edge="1" parent="1" source="h1lC2TfffPqqnakFkUhg-2" target="h1lC2TfffPqqnakFkUhg-5">
          <mxGeometry relative="1" as="geometry" />
        </mxCell>
        <mxCell id="h1lC2TfffPqqnakFkUhg-2" value="q0" style="ellipse;whiteSpace=wrap;html=1;aspect=fixed;" vertex="1" parent="1">
          <mxGeometry x="30" y="-990" width="50" height="50" as="geometry" />
        </mxCell>
        <mxCell id="h1lC2TfffPqqnakFkUhg-17" value="1" style="edgeStyle=orthogonalEdgeStyle;rounded=0;orthogonalLoop=1;jettySize=auto;html=1;entryX=0;entryY=0.5;entryDx=0;entryDy=0;" edge="1" parent="1" source="h1lC2TfffPqqnakFkUhg-5" target="h1lC2TfffPqqnakFkUhg-6">
          <mxGeometry relative="1" as="geometry" />
        </mxCell>
        <mxCell id="h1lC2TfffPqqnakFkUhg-5" value="q4" style="ellipse;whiteSpace=wrap;html=1;aspect=fixed;" vertex="1" parent="1">
          <mxGeometry x="30" y="-880" width="50" height="50" as="geometry" />
        </mxCell>
        <mxCell id="h1lC2TfffPqqnakFkUhg-18" value="0" style="edgeStyle=orthogonalEdgeStyle;rounded=0;orthogonalLoop=1;jettySize=auto;html=1;entryX=0;entryY=0.5;entryDx=0;entryDy=0;" edge="1" parent="1" source="h1lC2TfffPqqnakFkUhg-6" target="h1lC2TfffPqqnakFkUhg-7">
          <mxGeometry relative="1" as="geometry" />
        </mxCell>
        <mxCell id="h1lC2TfffPqqnakFkUhg-6" value="q5" style="ellipse;whiteSpace=wrap;html=1;aspect=fixed;" vertex="1" parent="1">
          <mxGeometry x="180" y="-880" width="50" height="50" as="geometry" />
        </mxCell>
        <mxCell id="h1lC2TfffPqqnakFkUhg-7" value="" style="ellipse;whiteSpace=wrap;html=1;aspect=fixed;" vertex="1" parent="1">
          <mxGeometry x="334" y="-880" width="50" height="50" as="geometry" />
        </mxCell>
        <mxCell id="h1lC2TfffPqqnakFkUhg-8" value="" style="ellipse;whiteSpace=wrap;html=1;aspect=fixed;" vertex="1" parent="1">
          <mxGeometry x="333.5" y="-1100" width="50" height="50" as="geometry" />
        </mxCell>
        <mxCell id="h1lC2TfffPqqnakFkUhg-15" value="1" style="edgeStyle=orthogonalEdgeStyle;rounded=0;orthogonalLoop=1;jettySize=auto;html=1;entryX=0;entryY=0.5;entryDx=0;entryDy=0;" edge="1" parent="1" source="h1lC2TfffPqqnakFkUhg-9" target="h1lC2TfffPqqnakFkUhg-8">
          <mxGeometry relative="1" as="geometry" />
        </mxCell>
        <mxCell id="h1lC2TfffPqqnakFkUhg-9" value="q2" style="ellipse;whiteSpace=wrap;html=1;aspect=fixed;" vertex="1" parent="1">
          <mxGeometry x="180" y="-1100" width="50" height="50" as="geometry" />
        </mxCell>
        <mxCell id="h1lC2TfffPqqnakFkUhg-14" value="0" style="edgeStyle=orthogonalEdgeStyle;rounded=0;orthogonalLoop=1;jettySize=auto;html=1;entryX=0;entryY=0.5;entryDx=0;entryDy=0;" edge="1" parent="1" source="h1lC2TfffPqqnakFkUhg-10" target="h1lC2TfffPqqnakFkUhg-9">
          <mxGeometry relative="1" as="geometry" />
        </mxCell>
        <mxCell id="h1lC2TfffPqqnakFkUhg-10" value="q1" style="ellipse;whiteSpace=wrap;html=1;aspect=fixed;" vertex="1" parent="1">
          <mxGeometry x="30" y="-1100" width="50" height="50" as="geometry" />
        </mxCell>
        <mxCell id="h1lC2TfffPqqnakFkUhg-11" value="q3" style="ellipse;whiteSpace=wrap;html=1;aspect=fixed;" vertex="1" parent="1">
          <mxGeometry x="338.5" y="-1095" width="40" height="40" as="geometry" />
        </mxCell>
        <mxCell id="h1lC2TfffPqqnakFkUhg-12" value="q6" style="ellipse;whiteSpace=wrap;html=1;aspect=fixed;" vertex="1" parent="1">
          <mxGeometry x="338.5" y="-875" width="40" height="40" as="geometry" />
        </mxCell>
        <mxCell id="h1lC2TfffPqqnakFkUhg-20" value="0" style="curved=1;endArrow=classic;html=1;rounded=0;exitX=0;exitY=0;exitDx=0;exitDy=0;entryX=1;entryY=0;entryDx=0;entryDy=0;" edge="1" parent="1" source="h1lC2TfffPqqnakFkUhg-9" target="h1lC2TfffPqqnakFkUhg-9">
          <mxGeometry width="50" height="50" relative="1" as="geometry">
            <mxPoint x="360" y="-910" as="sourcePoint" />
            <mxPoint x="410" y="-960" as="targetPoint" />
            <Array as="points">
              <mxPoint x="190" y="-1130" />
              <mxPoint x="230" y="-1120" />
              <mxPoint x="230" y="-1110" />
            </Array>
          </mxGeometry>
        </mxCell>
        <mxCell id="h1lC2TfffPqqnakFkUhg-21" value="1" style="curved=1;endArrow=classic;html=1;rounded=0;exitX=0;exitY=0;exitDx=0;exitDy=0;entryX=1;entryY=0;entryDx=0;entryDy=0;" edge="1" parent="1">
          <mxGeometry width="50" height="50" relative="1" as="geometry">
            <mxPoint x="37" y="-1093" as="sourcePoint" />
            <mxPoint x="73" y="-1093" as="targetPoint" />
            <Array as="points">
              <mxPoint x="40" y="-1130" />
              <mxPoint x="80" y="-1120" />
              <mxPoint x="80" y="-1110" />
            </Array>
          </mxGeometry>
        </mxCell>
        <mxCell id="h1lC2TfffPqqnakFkUhg-22" value="1" style="curved=1;endArrow=classic;html=1;rounded=0;exitX=0;exitY=0;exitDx=0;exitDy=0;entryX=1;entryY=0;entryDx=0;entryDy=0;" edge="1" parent="1">
          <mxGeometry width="50" height="50" relative="1" as="geometry">
            <mxPoint x="341" y="-1093" as="sourcePoint" />
            <mxPoint x="377" y="-1093" as="targetPoint" />
            <Array as="points">
              <mxPoint x="344" y="-1130" />
              <mxPoint x="384" y="-1120" />
              <mxPoint x="384" y="-1110" />
            </Array>
          </mxGeometry>
        </mxCell>
        <mxCell id="h1lC2TfffPqqnakFkUhg-23" value="" style="endArrow=classic;html=1;rounded=0;exitX=0;exitY=1;exitDx=0;exitDy=0;entryX=1;entryY=1;entryDx=0;entryDy=0;" edge="1" parent="1" source="h1lC2TfffPqqnakFkUhg-8" target="h1lC2TfffPqqnakFkUhg-9">
          <mxGeometry width="50" height="50" relative="1" as="geometry">
            <mxPoint x="390" y="-990" as="sourcePoint" />
            <mxPoint x="440" y="-1040" as="targetPoint" />
          </mxGeometry>
        </mxCell>
        <mxCell id="h1lC2TfffPqqnakFkUhg-24" value="0" style="edgeLabel;html=1;align=center;verticalAlign=middle;resizable=0;points=[];" vertex="1" connectable="0" parent="h1lC2TfffPqqnakFkUhg-23">
          <mxGeometry x="-0.2864" y="3" relative="1" as="geometry">
            <mxPoint as="offset" />
          </mxGeometry>
        </mxCell>
        <mxCell id="h1lC2TfffPqqnakFkUhg-25" value="" style="curved=1;endArrow=classic;html=1;rounded=0;exitX=0;exitY=1;exitDx=0;exitDy=0;entryX=1;entryY=1;entryDx=0;entryDy=0;" edge="1" parent="1" source="h1lC2TfffPqqnakFkUhg-5" target="h1lC2TfffPqqnakFkUhg-5">
          <mxGeometry width="50" height="50" relative="1" as="geometry">
            <mxPoint x="390" y="-990" as="sourcePoint" />
            <mxPoint x="440" y="-1040" as="targetPoint" />
            <Array as="points">
              <mxPoint x="30" y="-800" />
              <mxPoint x="90" y="-800" />
            </Array>
          </mxGeometry>
        </mxCell>
        <mxCell id="h1lC2TfffPqqnakFkUhg-26" value="0" style="edgeLabel;html=1;align=center;verticalAlign=middle;resizable=0;points=[];" vertex="1" connectable="0" parent="h1lC2TfffPqqnakFkUhg-25">
          <mxGeometry x="0.1022" y="2" relative="1" as="geometry">
            <mxPoint as="offset" />
          </mxGeometry>
        </mxCell>
        <mxCell id="h1lC2TfffPqqnakFkUhg-27" value="" style="curved=1;endArrow=classic;html=1;rounded=0;exitX=0;exitY=1;exitDx=0;exitDy=0;entryX=1;entryY=1;entryDx=0;entryDy=0;" edge="1" parent="1">
          <mxGeometry width="50" height="50" relative="1" as="geometry">
            <mxPoint x="341" y="-838" as="sourcePoint" />
            <mxPoint x="377" y="-838" as="targetPoint" />
            <Array as="points">
              <mxPoint x="334" y="-801" />
              <mxPoint x="394" y="-801" />
            </Array>
          </mxGeometry>
        </mxCell>
        <mxCell id="h1lC2TfffPqqnakFkUhg-28" value="0" style="edgeLabel;html=1;align=center;verticalAlign=middle;resizable=0;points=[];" vertex="1" connectable="0" parent="h1lC2TfffPqqnakFkUhg-27">
          <mxGeometry x="0.1022" y="2" relative="1" as="geometry">
            <mxPoint as="offset" />
          </mxGeometry>
        </mxCell>
        <mxCell id="h1lC2TfffPqqnakFkUhg-29" value="1" style="curved=1;endArrow=classic;html=1;rounded=0;exitX=0;exitY=1;exitDx=0;exitDy=0;entryX=1;entryY=1;entryDx=0;entryDy=0;" edge="1" parent="1">
          <mxGeometry width="50" height="50" relative="1" as="geometry">
            <mxPoint x="187" y="-837" as="sourcePoint" />
            <mxPoint x="223" y="-837" as="targetPoint" />
            <Array as="points">
              <mxPoint x="180" y="-800" />
              <mxPoint x="240" y="-800" />
            </Array>
          </mxGeometry>
        </mxCell>
        <mxCell id="h1lC2TfffPqqnakFkUhg-31" value="1" style="endArrow=classic;html=1;rounded=0;exitX=0;exitY=0;exitDx=0;exitDy=0;entryX=1;entryY=0;entryDx=0;entryDy=0;" edge="1" parent="1" source="h1lC2TfffPqqnakFkUhg-7" target="h1lC2TfffPqqnakFkUhg-6">
          <mxGeometry width="50" height="50" relative="1" as="geometry">
            <mxPoint x="390" y="-990" as="sourcePoint" />
            <mxPoint x="440" y="-1040" as="targetPoint" />
          </mxGeometry>
        </mxCell>
      </root>
    </mxGraphModel>
  </diagram>
</mxfile>
